<svg width="859" height="233" viewBox="0 0 859 233" fill="none" xmlns="http://www.w3.org/2000/svg">
<path d="M52 99L84.0429 159H19.9571L52 99Z" fill="#457CF3"/>
<path d="M8.875 159L51.375 69.75L93.875 159H74.75L51.375 110.125L28 159H8.875ZM115.125 159H98.125V74H115.125V159Z" fill="black"/>
<g clip-path="url(#clip0_296_1005)">
<circle cx="211" cy="116" r="31" fill="#457CF3"/>
<path d="M211.438 159C199.661 159 189.612 154.883 181.289 146.648C173.055 138.326 168.938 128.276 168.938 116.5C168.938 104.724 173.055 94.7188 181.289 86.4844C189.612 78.1615 199.661 74 211.438 74C223.214 74 233.219 78.1615 241.453 86.4844C249.776 94.7188 253.938 104.724 253.938 116.5C253.938 128.276 249.776 138.326 241.453 146.648C233.219 154.883 223.214 159 211.438 159ZM211.438 142C218.521 142 224.542 139.521 229.5 134.562C234.458 129.604 236.938 123.583 236.938 116.5C236.938 109.417 234.458 103.396 229.5 98.4375C224.542 93.4792 218.521 91 211.438 91C204.354 91 198.333 93.4792 193.375 98.4375C188.417 103.396 185.938 109.417 185.938 116.5C185.938 123.583 188.417 129.604 193.375 134.562C198.333 139.521 204.354 142 211.438 142ZM323.266 159H263.766V74H323.266C335.042 74 345.047 78.1615 353.281 86.4844C361.604 94.7188 365.766 104.724 365.766 116.5C365.766 128.276 361.604 138.326 353.281 146.648C345.047 154.883 335.042 159 323.266 159ZM280.766 142H323.266C330.349 142 336.37 139.521 341.328 134.562C346.286 129.604 348.766 123.583 348.766 116.5C348.766 109.417 346.286 103.396 341.328 98.4375C336.37 93.4792 330.349 91 323.266 91H280.766V142ZM388.477 119.156L354.477 74H375.727L396.977 102.289L418.227 74H439.477L405.477 119.023V193H388.477V119.156ZM519.695 159H417.695V142H519.695C522.086 142 524.078 141.203 525.672 139.609C527.354 137.927 528.195 135.891 528.195 133.5C528.195 131.109 527.354 129.117 525.672 127.523C524.078 125.841 522.086 125 519.695 125H485.695C478.612 125 472.591 122.521 467.633 117.562C462.674 112.604 460.195 106.583 460.195 99.5C460.195 92.4167 462.674 86.3958 467.633 81.4375C472.591 76.4792 478.612 74 485.695 74H536.695V91H485.695C483.305 91 481.268 91.8411 479.586 93.5234C477.992 95.1172 477.195 97.1094 477.195 99.5C477.195 101.891 477.992 103.927 479.586 105.609C481.268 107.203 483.305 108 485.695 108H519.695C526.779 108 532.799 110.479 537.758 115.438C542.716 120.396 545.195 126.417 545.195 133.5C545.195 140.583 542.716 146.604 537.758 151.562C532.799 156.521 526.779 159 519.695 159ZM650.914 159H548.914V142H650.914C653.305 142 655.297 141.203 656.891 139.609C658.573 137.927 659.414 135.891 659.414 133.5C659.414 131.109 658.573 129.117 656.891 127.523C655.297 125.841 653.305 125 650.914 125H616.914C609.831 125 603.81 122.521 598.852 117.562C593.893 112.604 591.414 106.583 591.414 99.5C591.414 92.4167 593.893 86.3958 598.852 81.4375C603.81 76.4792 609.831 74 616.914 74H667.914V91H616.914C614.523 91 612.487 91.8411 610.805 93.5234C609.211 95.1172 608.414 97.1094 608.414 99.5C608.414 101.891 609.211 103.927 610.805 105.609C612.487 107.203 614.523 108 616.914 108H650.914C657.997 108 664.018 110.479 668.977 115.438C673.935 120.396 676.414 126.417 676.414 133.5C676.414 140.583 673.935 146.604 668.977 151.562C664.018 156.521 657.997 159 650.914 159ZM821.18 125H723.43V108H821.18V125ZM770.18 74V91H702.18V142H770.18V159H685.18V74H770.18ZM834.062 119.156L800.062 74H821.312L842.562 102.289L863.812 74H885.062L851.062 119.023V193H834.062V119.156Z" fill="black"/>
</g>
<g clip-path="url(#clip1_296_1005)">
<rect x="665" y="89" width="69" height="55" fill="#457CF3"/>
<path d="M176.438 159C164.661 159 154.612 154.883 146.289 146.648C138.055 138.326 133.938 128.276 133.938 116.5C133.938 104.724 138.055 94.7188 146.289 86.4844C154.612 78.1615 164.661 74 176.438 74C188.214 74 198.219 78.1615 206.453 86.4844C214.776 94.7188 218.938 104.724 218.938 116.5C218.938 128.276 214.776 138.326 206.453 146.648C198.219 154.883 188.214 159 176.438 159ZM176.438 142C183.521 142 189.542 139.521 194.5 134.562C199.458 129.604 201.938 123.583 201.938 116.5C201.938 109.417 199.458 103.396 194.5 98.4375C189.542 93.4792 183.521 91 176.438 91C169.354 91 163.333 93.4792 158.375 98.4375C153.417 103.396 150.938 109.417 150.938 116.5C150.938 123.583 153.417 129.604 158.375 134.562C163.333 139.521 169.354 142 176.438 142ZM288.266 159H228.766V74H288.266C300.042 74 310.047 78.1615 318.281 86.4844C326.604 94.7188 330.766 104.724 330.766 116.5C330.766 128.276 326.604 138.326 318.281 146.648C310.047 154.883 300.042 159 288.266 159ZM245.766 142H288.266C295.349 142 301.37 139.521 306.328 134.562C311.286 129.604 313.766 123.583 313.766 116.5C313.766 109.417 311.286 103.396 306.328 98.4375C301.37 93.4792 295.349 91 288.266 91H245.766V142ZM353.477 119.156L319.477 74H340.727L361.977 102.289L383.227 74H404.477L370.477 119.023V193H353.477V119.156ZM484.695 159H382.695V142H484.695C487.086 142 489.078 141.203 490.672 139.609C492.354 137.927 493.195 135.891 493.195 133.5C493.195 131.109 492.354 129.117 490.672 127.523C489.078 125.841 487.086 125 484.695 125H450.695C443.612 125 437.591 122.521 432.633 117.562C427.674 112.604 425.195 106.583 425.195 99.5C425.195 92.4167 427.674 86.3958 432.633 81.4375C437.591 76.4792 443.612 74 450.695 74H501.695V91H450.695C448.305 91 446.268 91.8411 444.586 93.5234C442.992 95.1172 442.195 97.1094 442.195 99.5C442.195 101.891 442.992 103.927 444.586 105.609C446.268 107.203 448.305 108 450.695 108H484.695C491.779 108 497.799 110.479 502.758 115.438C507.716 120.396 510.195 126.417 510.195 133.5C510.195 140.583 507.716 146.604 502.758 151.562C497.799 156.521 491.779 159 484.695 159ZM615.914 159H513.914V142H615.914C618.305 142 620.297 141.203 621.891 139.609C623.573 137.927 624.414 135.891 624.414 133.5C624.414 131.109 623.573 129.117 621.891 127.523C620.297 125.841 618.305 125 615.914 125H581.914C574.831 125 568.81 122.521 563.852 117.562C558.893 112.604 556.414 106.583 556.414 99.5C556.414 92.4167 558.893 86.3958 563.852 81.4375C568.81 76.4792 574.831 74 581.914 74H632.914V91H581.914C579.523 91 577.487 91.8411 575.805 93.5234C574.211 95.1172 573.414 97.1094 573.414 99.5C573.414 101.891 574.211 103.927 575.805 105.609C577.487 107.203 579.523 108 581.914 108H615.914C622.997 108 629.018 110.479 633.977 115.438C638.935 120.396 641.414 126.417 641.414 133.5C641.414 140.583 638.935 146.604 633.977 151.562C629.018 156.521 622.997 159 615.914 159ZM786.18 125H688.43V108H786.18V125ZM735.18 74V91H667.18V142H735.18V159H650.18V74H735.18ZM799.062 119.156L765.062 74H786.312L807.562 102.289L828.812 74H850.062L816.062 119.023V193H799.062V119.156Z" fill="black"/>
</g>
<defs>
<clipPath id="clip0_296_1005">
<rect width="385" height="233" fill="white" transform="translate(160)"/>
</clipPath>
<clipPath id="clip1_296_1005">
<rect width="304" height="233" fill="white" transform="translate(555)"/>
</clipPath>
</defs>
</svg>
