<svg width="64" height="56" viewBox="0 0 64 56" fill="none" xmlns="http://www.w3.org/2000/svg">
<path d="M63.7971 30.7504C63.4066 34.8009 62.134 38.7169 60.0686 42.2237C58.0044 45.7304 55.198 48.743 51.8459 51.0502C48.4938 53.3574 44.6771 54.9034 40.664 55.5797C36.652 56.2559 32.5401 56.0462 28.6163 54.965C24.6938 53.8838 21.0547 51.9574 17.9542 49.321C14.855 46.6847 12.3686 43.402 10.6713 39.7034C8.97527 36.0046 8.10725 31.9795 8.13078 27.9103C8.1543 23.8409 9.06702 19.8259 10.8066 16.1469C15.6948 5.83651 26.6556 -0.818323 38.6715 0.328454C54.0136 1.79162 65.2638 15.413 63.7971 30.7504Z" fill="#C4D0FB"/>
<path d="M8.92465 13.8464L9.6433 12.5396C9.94557 11.8873 10.2137 11.2199 10.4478 10.5401C10.8101 9.47332 10.683 7.95251 12.2697 6.51639C13.8564 5.08028 11.5099 5.47665 10.7171 6.13884C10.0561 6.69047 9.51862 8.25597 8.86114 8.60882C8.71058 8.39629 8.59179 8.1634 8.50828 7.91723L7.07099 1.18241C7.04982 1.07455 6.99101 0.977754 6.90515 0.909888C6.81811 0.84214 6.7099 0.807678 6.60051 0.813088L6.33705 0.821322C6.27354 0.824733 6.2112 0.841434 6.15357 0.870368C6.09711 0.899303 6.04653 0.939763 6.00654 0.98928C5.96538 1.0388 5.93597 1.0962 5.91951 1.15783C5.90186 1.21946 5.89833 1.28391 5.90774 1.34707C6.12887 2.7879 6.89691 7.07508 6.81928 7.07743L6.6605 7.15271L4.45634 0.330854C4.42575 0.223116 4.35636 0.13055 4.26227 0.0705648C4.167 0.0106972 4.05408 -0.0122384 3.94352 0.0062277L3.59067 0.0650368C3.5295 0.0746815 3.4707 0.0966761 3.41894 0.129844C3.36601 0.162895 3.32132 0.206296 3.28603 0.25746C3.25193 0.308506 3.22723 0.366257 3.21546 0.427066C3.2037 0.487757 3.20488 0.550329 3.21782 0.610785C3.55656 2.17981 5.14087 7.40088 5.06089 7.40559L4.86682 7.47145L2.47565 1.82578C2.44271 1.71334 2.36744 1.61795 2.26511 1.55926C2.16396 1.50057 2.04399 1.48316 1.9299 1.51056L1.64879 1.57996C1.58998 1.59431 1.5347 1.62007 1.48648 1.6557C1.43825 1.69134 1.39709 1.73627 1.36533 1.78779C1.33475 1.83942 1.31358 1.89659 1.30417 1.95622C1.29476 2.01573 1.29829 2.07654 1.3124 2.13512L3.46364 7.68905L3.26604 7.81372L1.01248 3.80177C0.968957 3.6985 0.888977 3.61475 0.787825 3.56618C0.68785 3.5176 0.572584 3.50772 0.464375 3.5383L0.33029 3.57829C0.215025 3.61205 0.118578 3.68909 0.0597686 3.79318C0.000959497 3.89727 -0.015507 4.02018 0.0150737 4.1358C0.231491 4.95913 1.30887 6.68694 1.93578 8.48767C2.42625 9.88263 2.46036 11 3.26957 12.689C3.61066 13.4053 4.25991 14.2557 4.61394 14.7297" fill="#FFCCD7"/>
<path d="M49.7899 52.37C44.5594 55.3358 38.5103 56.5325 32.5435 55.7817C26.5779 55.0311 21.0134 52.3731 16.6804 48.2039L17.0168 39.579L6.21942 37.7959C4.62569 37.3581 3.24015 36.3667 2.31214 34.9995C1.38413 33.6323 0.973645 31.9791 1.15478 30.3365L2.03809 13.4066L10.5689 13.9947L10.8042 16.1494L12.1227 27.5208C12.1227 27.5208 21.0475 28.637 33.2269 31.755C45.0828 34.7907 48.5749 45.3187 49.7899 52.37Z" fill="#6A5AE0"/>
<path d="M16.8991 39.4696L16.9991 36.5303" stroke="#C4D0FB" stroke-linecap="square"/>
<path d="M40.5005 21.1978C43.7703 17.0292 43.3045 11.2052 39.4596 8.18956C35.6158 5.17395 29.8478 6.10866 26.5781 10.2773C23.3083 14.4459 23.774 20.2699 27.619 23.2855C31.4639 26.3011 37.2307 25.3664 40.5005 21.1978Z" fill="#001833"/>
<path d="M27.6108 35.1259C26.9686 34.6611 26.4958 33.9997 26.2641 33.2421C26.0312 32.4844 26.0524 31.6717 26.3229 30.9269L30.5689 19.2686C30.7136 18.7957 30.9535 18.3572 31.2734 17.9798C31.5922 17.6025 31.9862 17.2941 32.4284 17.0734C32.8719 16.8528 33.3541 16.7246 33.8481 16.6964C34.3421 16.6683 34.8361 16.741 35.3007 16.91C35.7665 17.0791 36.1911 17.341 36.5521 17.6796C36.9121 18.0184 37.2002 18.4268 37.3978 18.8804C37.5954 19.3338 37.6989 19.8227 37.7013 20.3173C37.7036 20.8119 37.606 21.3019 37.4131 21.7574L33.1659 33.4169C32.9718 33.9455 32.659 34.4221 32.2508 34.8094C31.8427 35.1967 31.3499 35.4842 30.8124 35.6494C30.2737 35.8146 29.7044 35.8529 29.1493 35.7615C28.5941 35.6701 28.0672 35.4514 27.6108 35.1224V35.1259Z" fill="#FFCCD7"/>
<path d="M28.5889 28.5199L27.8832 28.2576C27.0622 27.953 26.3188 27.4712 25.706 26.8465C25.0921 26.2219 24.6251 25.4698 24.3346 24.6437C24.0453 23.8176 23.9418 22.9378 24.0312 22.0671C24.1205 21.1963 24.4005 20.3559 24.851 19.6056L27.0857 15.8889C27.8067 14.6886 28.9276 13.7807 30.252 13.3247C31.5752 12.8687 33.0172 12.8937 34.3251 13.3954C35.8 13.9615 36.9891 15.0902 37.6325 16.5334C38.2747 17.9767 38.3182 19.6161 37.7525 21.0911L36.2235 25.0701C35.6612 26.5346 34.545 27.7183 33.1148 28.3642C31.6857 29.01 30.0591 29.066 28.5889 28.5199Z" fill="#FFCCD7"/>
<path d="M28.8951 18.1028L25.8359 20.5869L27.0368 21.4891" stroke="#24272D" stroke-width="0.2" stroke-linecap="square"/>
<path d="M29.6725 19.8577C30.0289 19.8577 30.3182 19.5686 30.3182 19.2119C30.3182 18.8553 30.0289 18.5662 29.6725 18.5662C29.3161 18.5662 29.0268 18.8553 29.0268 19.2119C29.0268 19.5686 29.3161 19.8577 29.6725 19.8577Z" fill="#24272D"/>
<path d="M26.987 18.4993C27.3434 18.4993 27.6328 18.2102 27.6328 17.8536C27.6328 17.497 27.3434 17.2079 26.987 17.2079C26.6306 17.2079 26.3413 17.497 26.3413 17.8536C26.3413 18.2102 26.6306 18.4993 26.987 18.4993Z" fill="#24272D"/>
<path d="M46.5625 38.5249C46.5625 38.5249 43.5845 45.9807 37.7835 42.6686C28.18 37.1841 30.1525 29.9717 32.86 26.6725C33.9386 25.3587 35.4476 24.7765 37.0225 24.299C32.4437 20.2612 34.6949 17.0455 34.6949 17.0455C34.6949 17.0455 22.4485 16.2586 26.4087 10.4494C30.3689 4.64029 37.4424 5.40128 41.1921 7.92419C49.9076 13.791 46.9413 19.7707 48.9302 21.9725C60.2063 34.4671 46.5625 38.5249 46.5625 38.5249Z" fill="#001833"/>
<path d="M38.3093 24.8106C39.576 24.0408 39.9783 22.3904 39.2079 21.1243C38.4387 19.8583 36.7885 19.456 35.5217 20.2257L33.4375 21.4931C32.172 22.2629 31.7697 23.9132 32.5389 25.1793C33.3093 26.4454 34.9595 26.8476 36.2251 26.0779L38.3093 24.8106Z" fill="#FFCCD7"/>
<path d="M37.7401 22.1325L34.7832 23.9286" stroke="#24272D" stroke-width="0.2" stroke-linecap="square"/>
<path d="M28.8187 23.3087C28.8492 23.7196 28.7163 24.1262 28.4482 24.4388C28.1788 24.7515 27.7977 24.9447 27.3861 24.9759C26.9756 25.0071 26.5686 24.8738 26.2569 24.6052C25.9441 24.3366 25.75 23.9548 25.7194 23.5439C25.6535 22.6876 26.5204 22.6959 27.3755 22.63C28.2306 22.5641 28.7528 22.4524 28.8187 23.3087Z" fill="#24272D"/>
</svg>
