<svg width="48" height="48" viewBox="0 0 48 48" fill="none" xmlns="http://www.w3.org/2000/svg">
<path d="M47.8897 26.2817C47.5544 29.7671 46.4606 33.1369 44.6848 36.1549C42.9091 39.1727 40.4944 41.7654 37.6105 43.7511C34.7264 45.7368 31.4429 47.0674 27.99 47.6496C24.5372 48.2318 20.9989 48.0513 17.6233 47.1209C14.2475 46.1906 11.1164 44.5328 8.44925 42.2641C5.78222 39.9952 3.64389 37.1703 2.1844 33.9875C0.724814 30.8047 -0.0206128 27.3411 0.000433566 23.8396C0.02148 20.3381 0.808393 16.8836 2.30603 13.7186C6.51126 4.84671 15.9396 -0.876298 26.2777 0.110252C39.4732 1.36899 49.1494 13.0872 47.8897 26.2817Z" fill="#C4D0FB"/>
<path d="M39.3871 42.4186L38.5534 43.0854C37.6901 43.744 36.7835 44.3437 35.8396 44.8804C33.0442 46.4648 29.9592 47.4718 26.7673 47.8421C23.5755 48.2122 20.3419 47.9379 17.2581 47.0353C14.1742 46.1328 11.3029 44.6205 8.81431 42.5878C6.32577 40.5552 4.27051 38.0437 2.77045 35.2021C6.58106 32.4013 12.9607 29.0551 21.1213 29.7381C34.7711 30.8866 39.3871 42.4186 39.3871 42.4186Z" fill="#6A5AE0"/>
<path d="M23.1238 35.4277C22.9702 35.4281 22.8168 35.419 22.6644 35.4004C21.6519 35.2797 20.7287 34.762 20.0981 33.9608C19.4673 33.1597 19.1806 32.1409 19.301 31.1283L21.1224 15.808C21.2431 14.7953 21.7611 13.8721 22.5626 13.2414C22.9595 12.9292 23.4139 12.6982 23.9 12.5615C24.3862 12.4249 24.8944 12.3853 25.3959 12.4451C25.8973 12.5049 26.382 12.6629 26.8224 12.91C27.2627 13.1571 27.6501 13.4886 27.9623 13.8854C28.2746 14.2822 28.5057 14.7367 28.6423 15.2228C28.779 15.7089 28.8186 16.2173 28.7588 16.7186L26.9374 32.039C26.8258 32.9724 26.3763 33.8325 25.6735 34.4569C24.9708 35.0813 24.0638 35.4267 23.1238 35.4277Z" fill="#FFCCD7"/>
<path d="M26.3423 27.6012L27.1578 27.6922C28.1061 27.7992 29.0665 27.6958 29.9704 27.3894C30.8742 27.083 31.6994 26.5812 32.3873 25.9196C33.0751 25.258 33.6088 24.453 33.9501 23.5617C34.2914 22.6704 34.4321 21.7149 34.3622 20.7631L34.0161 16.0479C33.9042 14.5251 33.2595 13.0903 32.1949 11.9955C31.1304 10.9008 29.7141 10.2161 28.195 10.0618C26.4812 9.88797 24.7687 10.402 23.4338 11.4908C22.0991 12.5797 21.2516 14.1541 21.0777 15.8678L20.6082 20.4909C20.4353 22.1923 20.9406 23.8931 22.0141 25.2243C23.0877 26.5555 24.6429 27.4095 26.3423 27.6012Z" fill="#FFCCD7"/>
<path d="M22.5647 22.5894L22.5655 22.5888C23.6888 21.8978 24.0392 20.427 23.3481 19.3037L22.6382 18.1498C21.9471 17.0265 20.4763 16.6761 19.3531 17.3671L19.3521 17.3676C18.2289 18.0587 17.8785 19.5295 18.5696 20.6528L19.2795 21.8068C19.9706 22.93 21.4413 23.2804 22.5647 22.5894Z" fill="#FFCCD7"/>
<path d="M19.6218 19.233L21.5362 21.2567" stroke="#001833" stroke-width="0.2" stroke-linecap="square"/>
<path d="M31.005 16.647L31.1396 20.4363L29.7918 20.491" stroke="#001833" stroke-width="0.2" stroke-linecap="square"/>
<path d="M26.99 21.6677C26.8786 21.8736 26.8089 22.0996 26.7847 22.3325C26.7606 22.5654 26.7826 22.8008 26.8494 23.0252C26.9162 23.2496 27.0267 23.4587 27.1743 23.6404C27.322 23.8222 27.504 23.9731 27.7099 24.0845C27.9159 24.1959 28.1418 24.2657 28.3747 24.2898C28.6076 24.3139 28.843 24.2919 29.0674 24.225C29.2918 24.1583 29.5009 24.0478 29.6826 23.9001C29.8644 23.7525 30.0153 23.5706 30.1267 23.3646C30.5952 22.4974 29.6835 22.1018 28.8113 21.6333C27.9391 21.1648 27.4585 20.8016 26.99 21.6677Z" fill="#001833"/>
<path d="M23.0661 20.9828L24.8874 14.1417L25.3195 12.5227C25.7255 12.9578 26.2007 13.3227 26.726 13.6023C28.6323 14.6284 34.3796 14.2196 35.1759 10.1894C35.8255 6.90291 32.3356 8.79203 30.5487 8.58662C27.7409 8.26283 25.793 6.61049 21.948 8.68781C17.3492 11.1759 19.5277 17.2753 19.5277 17.2753C19.5277 17.2753 21.5514 16.4831 23.0661 20.9828Z" fill="#001833"/>
<path opacity="0.4" d="M27.3613 27.7124L24.9258 27.4908L27.1498 29.6612L27.3613 27.7124Z" fill="#24272D"/>
<path d="M28.4096 18.6938C28.7789 18.6938 29.0784 18.3943 29.0784 18.0249C29.0784 17.6555 28.7789 17.3561 28.4096 17.3561C28.0402 17.3561 27.7408 17.6555 27.7408 18.0249C27.7408 18.3943 28.0402 18.6938 28.4096 18.6938Z" fill="#001833"/>
<path d="M32.3995 18.6938C32.769 18.6938 33.0684 18.3943 33.0684 18.0249C33.0684 17.6555 32.769 17.3561 32.3995 17.3561C32.0301 17.3561 31.7307 17.6555 31.7307 18.0249C31.7307 18.3943 32.0301 18.6938 32.3995 18.6938Z" fill="#001833"/>
</svg>
